<svg xmlns="http://www.w3.org/2000/svg" viewBox="0 0 1092.3 348.1"><defs><style>.a{fill:#dd0031;}.b{fill:#003da6;}.c{fill:#1a477b;}</style></defs><title>nba_stats_logo</title><path class="a" d="M93.5,59.4c2.6,1.6,3.9,2.8,6.6,4.5,6.9,4.4,15.5,12.2,14.5,39.2,2,5.9,2.8,17.4,4.7,21.1,3.6,7.2,6,11.9,7.1,18.7,0,0,1.1,10.6,2.4,11.4,7.2,1.6,5.1,2.3,6.2,3.6s5.3,1.4,5.3,5.3a25.7,25.7,0,0,1,3.4,6V29A28.9,28.9,0,0,0,114.8.1H86.9c4.4,1.6,6.9,3.5,8.4,6.4,3.5.3,7.8,8.3,1.2,20.1,2.9,2,.6,4.9-1.4,8.3-.7,1-1.4,3-3.2,2.9-2.6,5.3-5.6,10.4-7.9,10.7-.7.8-1.2,3.1-.2,4.2,3.4,1.5,7.5,3.6,9.5,5.5Z"/><path class="a" d="M118.9,347.7c12.7-7.7,4.8-22.3,2.4-30.9a2.1,2.1,0,0,1,.5-1.5c.6-1.2-.7-3.9-.7-3.9s-1.9-8.5-2.7-11.7c-1.4-5.4,2.4-14.8,2.4-17.9s-2.4-7.6-6.8-13.1c-1.1-1.2-4.3-28.4-7.1-35.3-3.9-9.5-5.1-8-9.8-19.3-3.6-8-.8-19.7-8.9-47,0,.1,1.8-1.7,1.8-1.7s-6.5-23.7-8.6-30.2-5.9-6.9-5.9-6.9a22.6,22.6,0,0,1,.2-3.3c.3-1.1,7.8-20.8,8.5-21.4s10.9-7.9,11.2-6.8c.9,4.8,5.1,29.4,6.9,33.3s8.1,16,11.1,23.4a25.8,25.8,0,1,0,30.1,34.6v131a28.7,28.7,0,0,1-24.3,28.6Z"/><path class="b" d="M58.1,308.8H54.9v11.8h3c3.3,0,3.7-1.6,3.7-5.9s-.4-5.9-3.5-5.9m3-12.1c0-3-.6-4.7-3.1-4.7H54.9v9.8h2.7c3.2-.1,3.5-2.4,3.5-5.1m24.5-5.6h0l-.2,1-2.5,19.5h5l-2.3-19.5Zm25.3,22.4c-4.6-4.1-1.5-5.9-1.7-7.5-3-12.7-13.1-20.4-7.9-24.5a97.2,97.2,0,0,0-3.8-9.4c-15.7-9-29.1-23.7-31.4-25.8s-7.4-6-8.3-8.4c-3.8-3.5-22.3-29.7-26.5-39.3l-7.5-1.1c-3.4-14-14.8-25.7-15.1-39.8-.1-5.3,2.4-16.6,3.3-18.9s5.3-6,5.3-6V129c-16.4.5-11.6-1.2-14.5-7.5-2-4.4-.6-5.4.1-8.4,2.2-9,9.5-22.9,12.5-29.2.9-3.2,4.1-10.9,4.1-10.9C31.7,48.1,36.2,49.9,50.7,48.6l.8-1.1c14.5-.6,12.2-1.8,14.2-15.7-2.1.9-2.7-4.4-2.7-4.4-1.2-8,2.2-6.5,3.8-6.6C67.2,7.7,68.5,3.6,78,0H29A29,29,0,0,0,0,29V319.1a29,29,0,0,0,29,29h85.6c-9.8-5.4-4-15.5-3.7-34.6M41.2,327.9H31.5l-7-25.2-.2-1.6h-.1v26.8H15.5V284.5h9.8l6.9,23.8.3,1.7h.1V284.5h8.7v43.4Zm17.9,0H44.6V284.5H58.8c7.3,0,10.8,2.8,10.8,10.2,0,4.6-.6,8.6-5.5,10.2h0c4.9.9,6.6,4.5,6.6,10-.1,7.4-2.7,12.9-11.6,12.9m30.7,0-.9-9.5h-7l-1,9.5h-10l8-43.4H92.1l8.1,43.4Z"/><path class="c" d="M224.8,235.7l32.5-29.1c10.7,15,30.5,25.9,52.1,25.9,15.6,0,32.3-4.9,32.3-19.3,0-12.7-10.4-17.3-23-20.7l-35.4-9.2c-27.9-7.5-48.7-23.6-48.7-56.7,0-38.3,32.8-66,78.3-66,36.3,0,57.9,8.9,76,31.1L356.4,120c-10.1-13-27.4-19-43.5-19S285,106.1,285,120.2c0,11.8,12.4,15.8,27.9,19.9l32.3,8.6c29.4,7.5,49.2,25.1,49.2,57,0,44.6-40.3,67.1-82.7,67.1C275.8,272.9,244.4,263.1,224.8,235.7Z"/><path class="c" d="M465.6,105.3H407.4V64.1H575.3v41.2H517.2V269.4H465.6Z"/><path class="c" d="M633.5,63.8h55l72,205.6H707.8l-12.4-38.3H622l-12.7,38.3H560.6Zm49.2,127-23.6-74.3h-.9l-23.9,74.3Z"/><path class="c" d="M805.2,105.3H747V64.1H914.9v41.2H856.7V269.4H805.2Z"/><path class="c" d="M922.7,235.7l32.5-29.1c10.7,15,30.5,25.9,52.1,25.9,15.6,0,32.3-4.9,32.3-19.3,0-12.7-10.4-17.3-23-20.7l-35.4-9.2c-27.9-7.5-48.7-23.6-48.7-56.7,0-38.3,32.8-66,78.3-66,36.3,0,57.9,8.9,76,31.1L1054.3,120c-10.1-13-27.4-19-43.5-19s-27.9,5.2-27.9,19.3c0,11.8,12.4,15.8,27.9,19.9l32.3,8.6c29.4,7.5,49.2,25.1,49.2,57,0,44.6-40.3,67.1-82.7,67.1C973.6,272.9,942.2,263.1,922.7,235.7Z"/></svg>